<svg class="img-fluid" id="outputsvg" xmlns="http://www.w3.org/2000/svg" style="transform: matrix(1, 0, 0, 1, 0, 0); transform-origin: 50% 50%; cursor: move; max-height: none; transition: transform 200ms ease-in-out;" width="1944" height="734" viewBox="0 0 19440 7340"><g id="l5EaE8VzicLylmnr5b6SEgT" fill="rgb(87,60,56)" style="transform: none;"><g style="transform: none;"><path id="p0GPUcuJt" d="M8054 7159 c-3 -6 21 -70 55 -142 l61 -132 -119 -280 c-66 -154 -116 -284 -112 -288 4 -4 43 -7 85 -5 l77 3 76 183 c42 100 80 181 85 180 4 -2 38 -66 74 -143 36 -77 74 -159 86 -182 l20 -43 84 0 84 0 -14 33 c-46 109 -372 795 -384 810 -12 13 -31 17 -83 17 -38 0 -71 -5 -75 -11z"></path><path id="p1FUL63CNm" d="M7499 6947 c-25 -7 -62 -23 -83 -35 -46 -27 -46 -27 -46 3 0 25 -1 25 -80 25 l-80 0 2 -432 3 -433 75 0 75 0 3 148 3 148 27 -19 c132 -89 285 -72 391 44 61 66 85 145 79 255 -10 201 -191 345 -369 296z m108 -156 c147 -67 128 -299 -28 -341 -113 -31 -209 48 -212 172 -2 138 119 223 240 169z"></path><path id="pFAs0MyxJ" d="M10413 6945 c-179 -48 -300 -185 -322 -363 -19 -153 20 -274 120 -375 116 -116 306 -166 460 -121 121 36 263 133 243 166 -5 8 -30 33 -56 57 l-48 43 -37 -32 c-57 -51 -138 -84 -214 -88 -167 -10 -304 122 -302 290 1 83 28 145 91 205 56 55 127 77 226 71 77 -5 108 -18 180 -73 25 -19 51 -35 56 -35 17 0 109 102 104 114 -8 17 -93 80 -144 106 -98 50 -246 64 -357 35z"></path><path id="pVxJAqpzc" d="M8988 6935 c-3 -3 3 -52 14 -108 24 -134 128 -724 128 -732 0 -11 158 -5 167 8 6 6 50 131 98 277 48 146 91 269 95 273 7 8 44 -92 156 -420 l48 -143 82 0 82 0 11 63 c27 151 131 765 131 776 0 7 -26 11 -79 11 l-79 0 -10 -47 c-6 -27 -24 -133 -42 -238 -38 -226 -38 -226 -52 -201 -6 10 -45 123 -88 250 l-77 231 -81 3 c-68 2 -82 0 -82 -13 0 -8 -28 -95 -61 -192 -34 -98 -70 -204 -81 -235 -20 -58 -38 -76 -38 -38 0 11 -11 80 -24 153 -13 73 -31 176 -41 230 l-17 97 -77 0 c-43 0 -80 -2 -83 -5z"></path><path id="pTiIc4SOd" d="M3725 5760 c-3 -5 -3 -14 0 -20 7 -11 10597 -15 10608 -4 3 3 3 12 0 20 -4 12 -767 14 -5303 14 -3522 0 -5301 -3 -5305 -10z"></path><path id="pogbrC01T" d="M17937 5731 c-87 -22 -144 -63 -184 -131 -56 -93 -42 -198 45 -331 108 -164 177 -199 482 -238 255 -34 305 -52 455 -169 175 -135 298 -306 380 -527 30 -80 39 -118 43 -192 5 -91 4 -92 -24 -118 -23 -22 -35 -26 -63 -21 -78 12 -144 57 -267 180 -182 183 -328 389 -496 700 -55 103 -79 129 -99 109 -8 -8 -5 -29 10 -79 75 -254 147 -592 158 -745 11 -155 -12 -194 -94 -166 -46 16 -67 9 -61 -19 2 -12 57 -46 165 -101 195 -99 186 -103 185 82 0 115 -20 259 -56 408 -14 57 -7 76 14 36 6 -11 53 -68 103 -127 284 -332 545 -513 666 -462 43 17 55 62 48 179 -14 247 -179 530 -486 830 -246 239 -414 328 -748 390 -122 23 -203 49 -255 84 -44 29 -78 98 -78 159 0 87 75 145 219 169 89 15 203 0 299 -38 35 -14 66 -23 69 -20 11 12 -52 109 -84 128 -80 50 -223 62 -346 30z"></path><path id="psGkWcJCQ" d="M7305 5530 c7 -97 52 -281 100 -401 51 -130 161 -328 254 -456 42 -60 103 -144 135 -188 158 -218 215 -431 156 -580 -20 -51 -24 -77 -24 -175 0 -103 4 -124 31 -203 48 -136 113 -236 233 -358 114 -115 213 -187 400 -288 265 -145 363 -215 445 -319 73 -92 93 -198 59 -313 -51 -170 -143 -259 -434 -420 -254 -141 -370 -242 -476 -417 -46 -76 -128 -264 -123 -281 2 -6 33 33 69 87 76 114 201 243 284 291 76 45 201 81 282 81 57 0 65 -3 80 -25 25 -38 12 -104 -42 -204 -41 -76 -144 -318 -144 -338 0 -4 23 27 52 68 65 94 148 176 365 362 243 209 334 324 388 493 24 74 27 98 23 178 -3 80 -8 101 -39 166 -62 128 -157 238 -306 353 -32 24 -148 105 -258 179 -111 74 -242 167 -292 206 -188 148 -306 306 -370 494 -28 80 -34 111 -34 185 0 139 30 217 136 343 63 76 150 136 315 221 136 69 177 96 270 176 60 51 138 125 172 164 119 133 374 344 572 473 32 21 129 81 215 133 194 119 286 184 368 265 65 63 72 91 11 45 -58 -44 -188 -117 -307 -172 -162 -75 -339 -168 -434 -226 -109 -68 -319 -226 -514 -385 -235 -193 -338 -272 -449 -345 -54 -36 -157 -103 -227 -150 -71 -46 -132 -84 -135 -83 -4 0 -10 25 -15 54 -10 70 -48 137 -130 229 -125 141 -198 235 -323 422 -179 267 -246 405 -333 699 -9 29 -10 23 -6 -40z"></path><path id="pyP2mqkpB" d="M10620 5048 c-222 -363 -398 -587 -635 -809 -116 -107 -203 -177 -565 -454 -113 -87 -224 -176 -248 -199 -103 -98 -119 -182 -61 -322 17 -44 41 -101 52 -129 14 -36 20 -75 21 -137 1 -49 2 -88 3 -88 6 0 45 78 64 131 28 77 31 194 7 337 -18 105 -11 150 27 198 l24 29 64 -63 c109 -108 159 -205 232 -453 14 -51 39 -107 59 -135 72 -101 77 -118 87 -253 4 -69 9 -173 9 -231 0 -118 18 -218 50 -280 12 -23 54 -77 94 -120 86 -91 116 -147 116 -214 0 -107 -21 -138 -204 -300 -91 -81 -116 -117 -116 -168 0 -46 41 -96 109 -135 85 -49 139 -93 155 -127 65 -138 -68 -299 -409 -491 -142 -80 -167 -96 -161 -102 8 -8 203 79 365 163 236 122 314 182 365 281 64 126 28 284 -98 431 -59 68 -59 89 -1 164 84 106 108 199 81 310 -9 34 -52 137 -95 228 -95 197 -106 232 -177 555 -102 465 -151 603 -270 761 -53 70 -132 140 -186 165 -58 26 -33 55 210 236 443 330 671 536 889 805 148 182 353 496 353 542 0 16 -30 26 -81 26 -35 0 -36 -1 -129 -152z"></path><path id="pfvFKxHqF" d="M2491 5079 c-25 -5 -79 -25 -120 -44 -59 -28 -91 -52 -146 -109 l-70 -74 -140 69 c-224 111 -383 148 -640 149 -232 0 -383 -33 -566 -124 -266 -132 -432 -338 -508 -630 -26 -98 -44 -315 -36 -421 19 -246 79 -416 206 -584 107 -143 249 -236 427 -281 97 -25 271 -27 380 -4 155 31 323 119 444 233 170 158 252 341 418 921 97 343 148 490 168 490 15 0 119 -93 171 -153 74 -86 175 -240 217 -334 43 -95 86 -222 78 -234 -3 -5 -61 -9 -129 -9 -133 0 -249 -17 -311 -47 -46 -22 -84 -82 -84 -134 0 -131 127 -339 296 -483 135 -115 303 -197 514 -250 151 -38 277 -62 285 -54 3 3 -6 62 -19 131 -14 69 -27 157 -28 194 l-3 68 31 3 c17 2 54 -6 82 -16 36 -14 54 -16 61 -9 23 23 11 45 -36 67 -82 39 -335 140 -349 140 -18 0 -17 -28 1 -155 31 -211 17 -261 -72 -259 -71 1 -187 39 -284 95 -185 105 -299 251 -299 381 0 114 43 138 262 141 l113 2 -3 -92 c-1 -50 -9 -112 -16 -137 -8 -25 -11 -48 -7 -50 13 -9 73 28 95 58 31 41 45 88 49 160 l3 59 205 2 c224 3 268 11 351 64 59 38 104 99 125 170 21 73 13 246 -16 346 -49 167 -154 337 -293 477 -138 138 -282 221 -460 263 -69 16 -273 19 -347 4z m441 -98 c156 -51 355 -229 438 -391 37 -73 69 -177 81 -266 24 -185 -32 -306 -161 -349 -96 -31 -387 -48 -394 -22 -30 98 -44 135 -82 210 -105 210 -237 370 -458 555 l-27 23 33 60 c43 80 143 174 206 194 72 22 276 15 364 -14z m-1312 -22 c147 -18 290 -63 473 -149 15 -7 27 -20 27 -29 0 -9 -16 -55 -36 -101 -19 -47 -76 -229 -125 -405 -157 -558 -233 -744 -379 -927 -103 -127 -251 -222 -388 -249 -92 -17 -280 -7 -362 21 -155 52 -279 159 -349 301 -70 143 -84 215 -85 429 -1 203 9 260 73 427 99 256 334 502 577 603 184 76 380 104 574 79z"></path><path id="p75jA895F" d="M4125 5080 c-11 -18 16 -172 46 -262 17 -50 88 -217 158 -371 149 -328 176 -396 167 -432 -8 -31 -36 -33 -105 -5 -52 20 -76 19 -85 -5 -5 -15 29 -45 50 -45 6 0 90 -31 186 -70 96 -38 178 -70 182 -70 8 0 0 49 -21 135 -24 96 -78 233 -195 495 -203 452 -207 468 -112 456 95 -12 98 -12 102 6 4 20 -46 47 -232 124 -145 61 -133 57 -141 44z"></path><path id="pMhYaeWsD" d="M3669 5069 c-40 -15 -53 -57 -46 -148 11 -140 86 -338 429 -1136 81 -187 185 -446 197 -491 8 -30 7 -38 -9 -54 -18 -18 -22 -18 -71 -4 -47 14 -53 14 -67 0 -14 -14 -14 -18 -2 -29 8 -8 38 -22 65 -32 107 -38 232 -88 272 -108 24 -11 46 -17 50 -13 4 4 -1 45 -10 91 -28 138 -106 350 -222 605 -163 359 -335 773 -399 961 -73 215 -35 269 115 164 61 -43 82 -47 93 -19 10 27 -181 170 -277 206 -52 20 -79 21 -118 7z"></path><path id="pSOfRikhH" d="M5207 5073 c-3 -2 9 -36 25 -76 185 -452 289 -734 323 -874 19 -80 13 -103 -30 -103 -72 0 -288 231 -435 465 -61 97 -193 355 -237 462 -14 35 -31 56 -50 66 -47 24 -162 61 -169 55 -3 -4 24 -73 59 -155 174 -398 304 -725 322 -810 14 -67 -22 -92 -89 -62 -20 9 -29 9 -41 -1 -27 -23 -16 -37 50 -65 35 -15 117 -59 181 -96 64 -38 121 -66 126 -63 26 17 -21 222 -93 404 -21 52 -36 96 -35 98 2 2 42 -41 88 -95 99 -115 217 -227 303 -288 117 -84 249 -119 291 -78 31 32 6 156 -78 371 -22 57 -38 105 -36 108 3 2 36 -34 75 -79 186 -218 461 -417 577 -417 50 0 76 19 76 54 0 29 -50 153 -129 320 -154 323 -261 585 -261 639 0 48 45 55 109 16 20 -12 24 -12 36 5 8 10 12 22 10 27 -14 22 -286 159 -347 174 -26 7 -28 5 -28 -26 1 -140 110 -458 279 -814 45 -93 81 -178 81 -188 0 -56 -83 -18 -215 100 -198 176 -367 431 -490 743 -42 106 -50 120 -74 120 -9 0 -51 15 -93 34 -42 18 -79 32 -81 29z"></path><path id="pAcKourbQ" d="M11385 5006 c-165 -26 -279 -73 -400 -163 -93 -69 -140 -119 -200 -212 -129 -199 -161 -468 -85 -713 56 -183 223 -361 426 -454 123 -57 202 -75 349 -81 150 -6 233 11 354 72 166 83 266 179 631 604 128 149 237 271 243 271 6 0 35 -23 64 -52 l53 -52 -69 -67 c-38 -37 -78 -84 -89 -105 -54 -107 -69 -258 -32 -319 21 -34 73 -65 109 -65 27 0 26 9 -5 51 -54 72 -71 168 -40 228 22 41 80 88 123 100 43 12 143 14 158 3 33 -23 411 -493 494 -614 57 -83 65 -89 98 -77 20 7 20 10 7 46 -31 89 -8 176 73 263 63 69 121 100 186 100 60 0 87 -11 137 -56 88 -80 118 -182 93 -319 -17 -93 -53 -148 -131 -201 -118 -81 -254 -104 -521 -86 -233 16 -276 21 -1161 123 -160 19 -376 17 -442 -4 -54 -16 -64 -25 -58 -52 1 -5 21 -80 44 -165 38 -139 45 -155 65 -158 35 -5 40 8 30 66 -9 45 -7 58 8 85 44 75 201 74 793 -3 654 -85 997 -100 1155 -50 230 72 332 188 343 391 9 168 -57 328 -177 426 -77 64 -227 134 -299 140 -55 5 -59 4 -110 -36 -29 -23 -84 -85 -123 -136 -40 -55 -75 -92 -82 -89 -6 3 -37 37 -66 76 -30 39 -101 127 -158 195 -57 68 -103 126 -103 128 0 12 61 1 255 -46 181 -44 228 -52 340 -56 118 -4 137 -3 206 19 133 43 221 116 276 226 35 71 43 215 18 312 -52 201 -245 394 -475 476 -65 23 -95 28 -220 32 -295 9 -421 -51 -707 -332 -120 -117 -166 -156 -175 -149 -7 6 -53 43 -103 83 -151 123 -338 239 -495 307 -208 91 -405 120 -605 89z m2268 -100 c231 -45 414 -238 425 -451 7 -130 -28 -211 -117 -276 -123 -88 -220 -90 -576 -9 -232 53 -334 70 -424 70 l-75 0 -68 67 c-38 37 -68 73 -68 79 0 16 269 276 370 357 103 83 195 131 298 157 95 23 139 24 235 6z m-1897 -6 c151 -16 294 -69 461 -172 121 -74 333 -241 333 -262 -1 -6 -15 -27 -31 -46 -17 -19 -107 -125 -199 -235 -381 -455 -587 -632 -796 -685 -201 -52 -400 -4 -548 131 -115 105 -174 219 -202 385 -14 79 -15 110 -5 185 23 176 80 288 221 429 148 148 273 217 455 254 138 27 186 29 311 16z"></path><path id="py7lL65o2" d="M14331 4992 c-58 -29 -76 -79 -75 -202 0 -171 63 -345 200 -551 151 -230 501 -470 700 -479 104 -5 125 -1 156 30 25 26 29 36 24 63 -33 162 -249 338 -501 408 -89 24 -135 20 -171 -16 -39 -40 -31 -45 69 -45 112 0 177 -16 252 -61 101 -61 156 -129 158 -197 2 -80 -96 -95 -227 -34 -220 103 -459 491 -483 783 -7 87 5 134 42 169 34 32 129 33 198 2 137 -61 312 -258 399 -450 28 -63 31 -65 45 -47 23 31 10 113 -28 187 -71 137 -355 376 -515 434 -81 30 -192 33 -243 6z"></path><path id="p26OjTVKj" d="M15164 4989 c-40 -20 -58 -79 -50 -163 24 -260 246 -567 570 -785 93 -63 276 -155 393 -197 170 -62 437 -102 477 -71 22 17 17 64 -13 113 -18 30 -20 31 -72 23 -270 -38 -553 35 -780 202 -76 56 -220 202 -268 272 -110 160 -161 372 -110 456 20 32 22 33 73 29 70 -6 147 -60 276 -194 169 -176 276 -350 355 -578 22 -66 46 -121 52 -123 7 -3 22 15 34 38 18 36 21 55 17 119 -5 83 -30 149 -92 241 -21 32 -32 55 -25 58 6 2 40 -4 76 -14 35 -10 67 -15 70 -11 4 3 -12 45 -35 93 -52 111 -112 266 -112 291 0 11 7 25 15 32 16 14 65 1 121 -32 29 -17 33 -17 48 -3 8 9 13 22 10 29 -15 38 -377 188 -418 173 -26 -10 14 -155 95 -346 27 -62 49 -116 49 -119 0 -3 -55 49 -122 115 -140 136 -280 244 -404 310 -69 37 -97 46 -147 49 -34 2 -72 -1 -83 -7z"></path><path id="pKspWTPLD" d="M16388 4969 c-14 -6 -33 -25 -42 -43 -36 -76 20 -245 206 -626 60 -124 119 -254 130 -289 29 -85 21 -97 -62 -94 -58 3 -61 2 -58 -18 2 -18 29 -30 163 -76 213 -73 205 -71 205 -38 0 58 -67 223 -215 525 -170 350 -198 418 -193 476 l3 39 52 3 c70 4 120 -25 242 -143 196 -189 374 -461 519 -797 13 -29 30 -51 44 -57 41 -15 173 -50 177 -46 2 2 -15 41 -37 87 -155 317 -362 824 -362 885 0 36 40 47 109 29 89 -23 99 18 14 56 -132 59 -329 135 -336 129 -14 -14 47 -260 100 -400 13 -35 22 -65 19 -68 -2 -2 -31 29 -64 69 -119 146 -317 313 -437 369 -69 32 -138 43 -177 28z"></path><path id="paJbU1mbS" d="M17473 4968 c-33 -16 -47 -67 -33 -120 18 -64 98 -261 185 -453 106 -235 243 -549 247 -566 2 -11 -15 -14 -86 -14 -51 0 -91 -4 -92 -10 -8 -25 17 -38 88 -45 40 -4 83 -12 95 -19 31 -16 77 -86 109 -165 20 -47 34 -68 48 -70 65 -13 158 -21 161 -15 3 3 -20 62 -50 129 -30 68 -55 127 -55 131 0 5 44 10 98 11 89 3 97 5 97 23 0 19 -8 20 -107 23 -129 3 -109 -16 -209 208 -39 87 -118 265 -176 394 -107 238 -153 357 -153 395 0 34 28 65 59 65 39 0 118 -28 173 -62 49 -31 68 -30 68 2 0 32 -170 125 -285 156 -59 16 -151 17 -182 2z"></path><path id="pq8srFmMO" d="M6580 3679 c-116 -12 -186 -53 -226 -132 -23 -44 -26 -59 -20 -111 17 -163 152 -254 411 -277 241 -21 256 -28 98 -47 -103 -12 -175 -39 -193 -72 -16 -30 -15 -102 3 -136 54 -102 239 -194 391 -194 48 0 76 4 76 11 0 16 -52 163 -62 173 -17 20 -29 -9 -17 -43 18 -50 -7 -71 -85 -71 -183 0 -296 112 -223 220 49 73 113 88 427 97 226 6 400 -6 451 -32 33 -18 89 -80 90 -103 1 -9 0 -29 -1 -44 -2 -35 14 -36 36 -3 23 36 12 65 -52 134 -66 71 -166 126 -249 136 l-55 7 -33 62 c-19 33 -42 75 -52 92 l-19 32 34 28 c19 16 70 59 113 96 99 85 108 88 159 48 28 -23 43 -29 50 -22 8 8 -10 33 -62 87 -40 41 -78 75 -83 75 -5 0 -53 -42 -106 -92 -53 -51 -114 -107 -136 -124 l-40 -32 -73 59 c-166 134 -362 197 -552 178z m335 -90 c39 -14 93 -41 121 -60 58 -39 134 -105 134 -116 0 -14 -104 -85 -170 -117 -83 -40 -181 -44 -227 -10 -43 33 -67 81 -66 136 1 53 -8 60 -31 26 -21 -30 -20 -61 4 -108 24 -46 65 -80 144 -116 49 -22 68 -26 120 -21 69 5 155 40 227 92 27 19 54 35 60 35 12 0 74 -128 66 -136 -3 -3 -117 -8 -254 -11 -330 -8 -456 11 -551 83 -133 102 -71 294 110 340 83 21 228 13 313 -17z"></path><path id="pwx3uXnF" d="M4752 3603 c-27 -5 -56 -56 -47 -84 20 -61 91 -102 137 -78 31 16 38 28 38 66 0 59 -64 107 -128 96z"></path></g></g></svg>